<svg xmlns="http://www.w3.org/2000/svg" width="44" height="44" viewBox="0 0 18 18" fill="none">
  <!-- Memora menubar template — clipboard with memory lines, black-only for macOS tinting -->
  <rect x="7" y="0" width="4" height="1" fill="#000"/>
  <rect x="6" y="1" width="6" height="2" fill="#000"/>
  <path fill="#000" d="M3 3h12a1 1 0 0 1 1 1v12a1 1 0 0 1-1 1H3a1 1 0 0 1-1-1V4a1 1 0 0 1 1-1zm1 2v10h10V5H4z"/>
  <rect x="5" y="7" width="8" height="1.5" fill="#000"/>
  <rect x="5" y="10" width="6" height="1.5" fill="#000"/>
  <rect x="5" y="13" width="7" height="1.5" fill="#000"/>
</svg>
